<svg width="33" height="26" viewBox="0 0 33 26" fill="none" xmlns="http://www.w3.org/2000/svg">
<path opacity="0.2" fill-rule="evenodd" clip-rule="evenodd" d="M20.1602 2.19901H18.3274C16.702 2.19922 15.1228 2.73753 13.8376 3.72939C12.5525 4.72124 11.6344 6.11045 11.2274 7.67881H10.9965C9.05219 7.67881 7.18754 8.44859 5.81271 9.81881C4.43789 11.189 3.66553 13.0474 3.66553 14.9852C3.66553 16.923 4.43789 18.7814 5.81271 20.1516C7.18754 21.5218 9.05219 22.2916 10.9965 22.2916H25.6584C27.461 22.2942 29.2013 21.6349 30.547 20.4395C31.8926 19.2441 32.7492 17.5965 32.953 15.8114C33.1568 14.0264 32.6937 12.2291 31.652 10.7629C30.6103 9.29674 29.0631 8.26446 27.306 7.8633C26.9327 6.25313 26.023 4.81655 24.7253 3.78786C23.4275 2.75918 21.8183 2.19911 20.1602 2.19901Z" fill="white"/>
<path fill-rule="evenodd" clip-rule="evenodd" d="M16.4947 0.372375H14.6619C13.0365 0.372591 11.4572 0.910902 10.1721 1.90276C8.88699 2.89461 7.96884 4.28382 7.56188 5.85218H7.33096C5.38667 5.85218 3.52201 6.62196 2.14719 7.99218C0.772367 9.36239 0 11.2208 0 13.1586C0 15.0964 0.772367 16.9548 2.14719 18.325C3.52201 19.6952 5.38667 20.465 7.33096 20.465H21.9929C23.7955 20.4676 25.5358 19.8082 26.8814 18.6128C28.2271 17.4174 29.0836 15.7698 29.2875 13.9848C29.4913 12.1998 29.0281 10.4025 27.9865 8.9363C26.9448 7.47011 25.3976 6.43783 23.6405 6.03667C23.2672 4.4265 22.3575 2.98991 21.0597 1.96123C19.762 0.932552 18.1528 0.372482 16.4947 0.372375ZM8.98225 7.67878L9.33597 6.30883C9.64137 5.13249 10.3302 4.09056 11.2942 3.34667C12.2581 2.60279 13.4427 2.19909 14.6619 2.19898H16.4947C19.0697 2.19898 21.2854 3.97991 21.8536 6.44583L22.1102 7.56005L23.2281 7.8176C24.5423 8.12219 25.6983 8.89758 26.4762 9.99628C27.2541 11.095 27.5997 12.4403 27.4472 13.7764C27.2946 15.1125 26.6547 16.3461 25.649 17.2426C24.6433 18.1391 23.3421 18.6358 21.9929 18.6384H7.33096C5.87274 18.6384 4.47425 18.0611 3.44313 17.0334C2.41201 16.0057 1.83274 14.6119 1.83274 13.1586C1.83274 11.7053 2.41201 10.3114 3.44313 9.28378C4.47425 8.25612 5.87274 7.67878 7.33096 7.67878H8.98225Z" fill="white"/>
<path d="M16.4948 25.0315C16.4948 25.2738 16.3983 25.5061 16.2265 25.6773C16.0546 25.8486 15.8215 25.9448 15.5785 25.9448C15.3354 25.9448 15.1024 25.8486 14.9305 25.6773C14.7587 25.5061 14.6621 25.2738 14.6621 25.0315V11.332C14.6621 11.0898 14.7587 10.8575 14.9305 10.6862C15.1024 10.5149 15.3354 10.4187 15.5785 10.4187C15.8215 10.4187 16.0546 10.5149 16.2265 10.6862C16.3983 10.8575 16.4948 11.0898 16.4948 11.332V25.0315Z" fill="white"/>
<path d="M11.5682 15.6976C11.3775 15.8354 11.1409 15.8948 10.9075 15.8634C10.6741 15.832 10.4617 15.7122 10.3146 15.5288C10.1674 15.3455 10.0968 15.1128 10.1172 14.8789C10.1377 14.645 10.2478 14.428 10.4246 14.2728L15.0064 10.6196C15.1971 10.4818 15.4337 10.4224 15.6671 10.4538C15.9006 10.4853 16.1129 10.6051 16.2601 10.7884C16.4072 10.9717 16.4779 11.2045 16.4574 11.4383C16.4369 11.6722 16.3269 11.8892 16.1501 12.0444L11.5682 15.6976Z" fill="white"/>
<path d="M20.7317 14.2728C20.9085 14.428 21.0186 14.645 21.039 14.8789C21.0595 15.1128 20.9889 15.3455 20.8417 15.5288C20.6946 15.7122 20.4822 15.832 20.2488 15.8634C20.0154 15.8948 19.7788 15.8354 19.5881 15.6976L15.0062 12.0444C14.9059 11.9718 14.8213 11.8797 14.7577 11.7737C14.6941 11.6676 14.6528 11.5498 14.6362 11.4273C14.6196 11.3049 14.6281 11.1804 14.6612 11.0613C14.6943 10.9422 14.7513 10.8311 14.8287 10.7346C14.9062 10.6381 15.0025 10.5583 15.1118 10.4999C15.2211 10.4416 15.3411 10.406 15.4646 10.3953C15.5881 10.3845 15.7125 10.3989 15.8303 10.4374C15.9481 10.476 16.0568 10.538 16.1499 10.6196L20.7317 14.2728Z" fill="white"/>
</svg>
